PathFileType	4	(X/Y/Z)	F:\MotionCapture\20160217\3\Generated_files\P_3_test01-Dynamic.trc
DataRate	CameraRate	NumFrames	NumMarkers	Units	OrigDataRate	OrigDataStartFrame	OrigNumFrames
120.00	120.00	      6	39	mm	120.00	590	      2357
Frame#	Time	Top.Head			Front.Head			Rear.Head			R.Shoulder			R.Offset			R.Elbow			R.Wrist			L.Shoulder			L.Elbow			L.Wrist			R.ASIS			L.ASIS			V.Sacral			R.Thigh			R.Knee			R.Shank			R.Ankle			R.Heel			R.Toe			L.Thigh			L.Knee			L.Shank			L.Ankle			L.Heel			L.Toe			R1			R2			R3			R4			R5			R6			R7			L1			L2			L3			L4			L5			L6			L7			V_Mid_ASIS			V_Pelvis_Origin			V_R.Hip_JC			V_L.Hip_JC			V_R.Knee_JC			V_L.Knee_JC			V_R.Ankle_JC			V_L.Ankle_JC			V_Mid_Hip			V_Mid_Shoulder			V_R.Hand			V_L.Hand			V_R.Toe_Offset_Static			V_L.Toe_Offset_Static			V_R.Toe_Offset			V_L.Toe_Offset			
		X1	Y1	Z1	X2	Y2	Z2	X3	Y3	Z3	X4	Y4	Z4	X5	Y5	Z5	X6	Y6	Z6	X7	Y7	Z7	X8	Y8	Z8	X9	Y9	Z9	X10	Y10	Z10	X11	Y11	Z11	X12	Y12	Z12	X13	Y13	Z13	X14	Y14	Z14	X15	Y15	Z15	X16	Y16	Z16	X17	Y17	Z17	X18	Y18	Z18	X19	Y19	Z19	X20	Y20	Z20	X21	Y21	Z21	X22	Y22	Z22	X23	Y23	Z23	X24	Y24	Z24	X25	Y25	Z25	X26	Y26	Z26	X27	Y27	Z27	X28	Y28	Z28	X29	Y29	Z29	X30	Y30	Z30	X31	Y31	Z31	X32	Y32	Z32	X33	Y33	Z33	X34	Y34	Z34	X35	Y35	Z35	X36	Y36	Z36	X37	Y37	Z37	X38	Y38	Z38	X39	Y39	Z39	

590	4.908	-148.05563	-16.76563	1634.18542	-51.27552	-22.51702	1534.00110	-265.67993	-4.24936	1583.09766	-261.38626	-206.37541	1342.00940	-411.80887	62.97852	1221.01160	-323.32272	-311.70743	1021.30969	-105.29305	-264.68567	886.45837	-225.16982	198.06523	1346.18738	-310.52563	326.44684	1044.11926	-138.31317	294.99405	855.69562	-269.35184	-152.46281	867.38873	-249.61937	133.48523	863.28693	-483.88852	7.22228	876.19714	-134.39487	-135.56276	545.50934	-187.73515	-179.47160	417.71643	-263.82819	-90.79332	205.64587	-390.18350	-151.33766	80.63570	-454.90353	-79.73242	66.05502	-256.29697	-148.58842	37.44466	-121.31069	110.77993	600.83374	-155.96732	169.49026	422.22369	-196.50154	93.74950	282.86227	-383.68332	155.10948	82.15653	-450.87183	98.17119	84.64320	-257.55725	153.87338	37.59176	-203.33936	-132.05219	32.11759	-246.23595	-110.42905	42.55808	-334.77780	-65.65836	56.35115	-410.44513	-55.96555	59.31120	-430.82434	-128.22571	60.48827	-361.20694	-164.29961	40.40215	-298.92200	-187.55362	32.62859	-208.78880	127.88005	30.39751	-245.46750	115.05883	41.65108	-331.68149	70.57864	59.12551	-411.76907	67.94108	73.26148	-426.20554	139.33916	74.85667	-358.98962	171.53429	43.04640	-298.29340	186.61307	34.89056																																																	4210.51563	-1758.38745	1595.73108	
591	4.917	-150.74658	-16.50215	1648.21484	-53.45543	-22.60986	1547.57520	-268.17892	-3.90444	1597.11743	-263.40424	-205.99815	1355.85535	-412.03485	63.01173	1232.43164	-322.83371	-311.94208	1035.04358	-100.71772	-263.29623	908.42712	-227.29518	198.34224	1359.74756	-310.56116	326.49335	1056.81970	-132.91534	294.45764	873.53857	-267.18369	-152.97643	879.24182	-246.66180	133.32538	875.96552	-481.36865	7.35193	888.31927	-138.97954	-136.54321	553.34686	-194.37566	-180.37917	426.57004	-265.49374	-93.00074	212.14885	-389.31201	-153.04097	84.08885	-453.49014	-81.51907	71.25955	-255.99437	-148.53899	37.62070	-124.09151	112.29041	608.55133	-162.67586	171.15414	430.73923	-199.84015	95.24863	290.09042	-382.61798	157.03181	84.80457	-449.59460	99.43398	88.38412	-257.22549	154.04112	37.67488	-203.48138	-131.82039	31.98375	-246.04802	-110.44349	42.56445	-333.88306	-66.85687	59.86015	-409.36826	-57.53891	63.84998	-429.90533	-130.08517	64.81343	-359.87354	-165.23616	42.33329	-298.23859	-187.69046	32.72237	-209.66872	127.98550	29.63522	-245.19791	115.02007	41.56583	-330.75781	71.43023	61.41532	-410.04514	69.82388	77.17393	-425.01221	140.68201	77.73260	-357.64212	172.25974	44.60405	-297.72241	186.62070	34.79380																																																	4216.49512	-1762.63037	1624.49255	57.52621	-163.22055	-156.87885	
592	4.925	-152.39781	-16.29372	1662.43860	-55.94429	-22.42253	1561.49048	-270.07709	-3.84068	1611.70776	-265.16455	-205.81444	1370.38977	-412.09833	62.94920	1244.33167	-321.98218	-312.20709	1049.20093	-97.03586	-262.36392	930.34570	-228.92238	198.46977	1373.85754	-309.75885	326.94308	1070.13904	-128.82774	294.35822	891.75165	-264.13495	-152.57755	892.49329	-244.08784	133.29765	889.02844	-478.91650	7.35524	901.58862	-143.63026	-137.27042	561.96771	-200.76819	-181.38988	436.19699	-267.53226	-94.65573	219.36034	-387.63632	-154.76318	88.14781	-452.05502	-83.72299	77.15609	-255.40828	-148.67656	38.01511	-127.10606	113.67244	616.96100	-169.80470	172.45523	439.69427	-204.03612	97.22166	298.01306	-381.61252	159.70322	89.53900	-447.90414	101.39336	92.84660	-256.77991	154.23050	37.77671	-203.73000	-131.57936	31.88076	-245.80525	-110.55612	42.68303	-332.97876	-68.03268	63.87034	-408.11893	-59.67787	69.80630	-427.77246	-131.89334	69.58785	-358.49677	-166.75591	44.85602	-297.55298	-187.79750	32.97272	-208.81625	127.67657	30.19055	-244.97012	114.96032	41.52514	-329.85980	72.47324	64.01018	-409.03299	71.38668	81.56793	-423.50803	142.25775	81.40742	-356.17346	173.45863	46.56422	-297.14935	187.43500	35.35039																																																	4223.65430	-1766.24854	1656.40515	67.06313	-166.75156	-154.68858	
593	4.933	-153.87178	-16.32052	1676.84326	-57.47254	-21.96488	1576.13684	-271.74405	-3.35859	1626.62158	-267.16461	-205.29770	1385.52039	-412.71066	62.73532	1257.00659	-321.86697	-312.53760	1064.33643	-93.60564	-261.03397	951.89862	-230.19135	198.16693	1388.53748	-308.51236	326.87512	1084.57153	-125.12788	294.13803	910.14136	-262.75314	-153.09627	906.78210	-241.84808	132.73824	902.82574	-476.73886	7.61468	915.18988	-148.81337	-138.19759	571.32050	-207.81429	-182.42368	446.75946	-269.06076	-96.92110	227.63641	-384.73172	-157.70848	93.88097	-449.97900	-86.43027	84.20548	-255.85043	-148.86922	37.57684	-131.29489	114.10325	625.24487	-177.07933	173.74336	449.97687	-207.81276	99.19669	307.01932	-380.45749	162.09526	93.84704	-445.58316	103.74667	98.16297	-256.31461	154.47302	37.87048	-204.22055	-131.28328	31.87034	-245.71606	-110.85327	42.61442	-331.63113	-70.00494	68.73656	-406.33533	-61.70625	76.66955	-424.71799	-133.37057	74.83041	-357.76846	-168.66566	47.13367	-296.71796	-187.74968	33.26134	-208.95609	127.43059	30.13729	-244.22227	115.05983	41.73890	-328.91367	74.21030	67.15334	-406.72168	73.79590	86.46755	-421.13110	144.57201	85.84689	-354.12054	175.20428	48.78442	-295.77563	187.33601	35.22664																																																	4230.18652	-1771.53906	1688.96118	79.39922	-171.10303	-151.83771	
594	4.942	-155.16225	-16.34464	1691.69153	-58.81290	-22.10962	1590.14832	-272.51163	-2.90718	1641.73926	-269.16220	-205.04767	1400.64136	-412.15808	62.71637	1270.29053	-321.84628	-313.00082	1079.84021	-91.78342	-260.63785	973.07086	-232.64191	198.52589	1403.00500	-308.95963	326.67499	1098.98523	-122.00384	293.64386	928.69330	-261.00024	-153.77267	920.61353	-238.92227	132.54245	917.27856	-474.38531	7.98316	929.41028	-153.59372	-138.80698	581.39838	-214.72716	-183.74637	457.91208	-269.74460	-99.52151	236.43221	-383.43127	-160.15417	99.56361	-447.54495	-89.46828	92.59162	-255.06012	-149.27299	37.94733	-134.91753	114.90411	634.87189	-185.19366	175.03438	460.79245	-211.99768	101.41656	316.92154	-379.26413	164.85797	98.82481	-442.72757	106.72748	104.41273	-255.47906	154.60025	37.99828	-204.66028	-130.96378	31.84435	-245.17021	-111.37796	42.65376	-329.45270	-72.09497	74.05618	-404.08936	-64.54351	83.83308	-423.10120	-136.87421	81.83547	-355.16693	-170.50261	50.67481	-295.35394	-187.53671	33.46405	-209.30908	127.02983	30.15813	-243.59615	115.49954	41.68521	-327.04617	76.19310	71.16896	-404.27621	76.17126	92.80491	-418.21866	147.27086	90.73138	-353.25177	176.44980	51.12304	-294.77979	187.78593	35.42489																																																	4237.31982	-1775.45325	1721.28687	-590.50824	5.25471	-1.58855	
595	4.950	-155.73087	-16.26968	1706.01489	-60.70948	-21.99269	1604.19592	-273.91864	-2.90601	1657.05933	-270.50998	-204.81371	1416.29639	-412.68869	62.46141	1283.58862	-322.09818	-313.40363	1095.65247	-90.27339	-260.04391	994.32935	-234.43390	198.98189	1418.62048	-309.34265	327.27280	1114.34351	-119.92677	293.75021	947.14398	-259.53021	-154.11050	935.44574	-236.68460	131.87251	932.14227	-472.20718	7.93476	944.17194	-157.89632	-138.95183	592.04340	-222.11308	-184.98361	470.00061	-270.52786	-102.26774	246.18617	-381.33813	-162.94354	106.13909	-444.04166	-92.97359	101.85947	-254.81485	-149.58032	38.02663	-139.69513	115.55920	644.79254	-193.05357	176.65594	472.53098	-216.51822	103.55653	327.23135	-376.97748	168.10265	104.82112	-441.01456	112.19063	112.73785	-249.75595	155.52373	41.04422	-205.10965	-130.50560	31.99693	-244.25290	-112.20174	43.27988	-327.10806	-74.40654	80.05212	-400.98682	-68.13774	92.30279	-419.78568	-140.03273	89.69556	-352.88339	-172.62193	54.36785	-294.10168	-187.83487	33.75636	-210.84370	126.41083	29.85534	-243.29747	114.99979	41.30817	-325.27661	77.66044	75.68352	-402.09790	79.46236	99.68750	-415.06662	150.44965	96.92516	-350.60721	178.44057	54.07607	-293.25275	188.26277	35.64436																																																	38.02808	13.38658	-94.97566	
